PathFileType	4	(X/Y/Z)	C:/Users/beibeiliu/ov580/test_trc/User1\sequence.2_training_dense_right.trc
DataRate	CameraRate	NumFrames	NumMarkers	Units	OrigDataRate	OrigDataStartFrame	OrigNumFrames
120	120	12	19	mm	120	92	244
Frame#	Time	ThumbCMC			ThumbMCP			ThumbIP			ThumbTip			IndexMCP			IndexPIP			IndexTip			MiddleMCP			MiddlePIP			MiddleTip			RingMCP			RingPIP			RingTip			PinkyMCP			PinkyPIP			PinkyTip			BackHand1			BackHand2			BackHand3	
		X0	Y0	Z0	X1	Y1	Z1	X2	Y2	Z2	X3	Y3	Z3	X4	Y4	Z4	X5	Y5	Z5	X6	Y6	Z6	X7	Y7	Z7	X8	Y8	Z8	X9	Y9	Z9	X10	Y10	Z10	X11	Y11	Z11	X12	Y12	Z12	X13	Y13	Z13	X14	Y14	Z14	X15	Y15	Z15	X16	Y16	Z16	X17	Y17	Z17	X18	Y18	Z18	
91	0.758333	102.369	80.2208	18.0912	66.2771	71.8851	11.1958	48.0509	59.345	2.47401	25.9959	46.6311	-6.04695	89.6171	38.6463	-57.5365	68.4482	14.7257	-67.1796	50.9004	-6.54633	-53.7886	106.232	18.6732	-60.9403	79.9262	-7.1433	-67.1166	58.7935	-25.1292	-46.5634	120.704	3.61855	-53.2264	97.5224	-23.8322	-55.227	77.4974	-31.0766	-35.6551	139.78	-9.50105	-28.8401	115.265	-27.6005	-33.7866	90.3047	-29.4994	-22.4114	151.999	40.5569	-15.437	167.164	56.2843	14.7601	134.976	74.8519	-2.91747	
92	0.766667	99.8691	80.9983	15.7772	68.9421	71.9363	10.6752	44.3585	66.3258	-0.337484	26.6804	51.2627	-9.7727	85.5011	40.0525	-57.692	64.1367	16.4436	-68.4335	44.3888	-3.34339	-54.2173	101.247	17.1188	-60.5824	72.5058	-3.6644	-66.9601	52.0348	-22.4319	-47.0804	111.95	1.18823	-50.5982	90.0542	-21.0784	-55.34	63.9796	-31.5756	-30.9302	126.398	-15.442	-28.9351	105.535	-26.9048	-33.3141	74.97	-26.6871	-19.9163	148.558	34.0953	-11.9791	164.981	48.082	17.8987	133.915	68.8743	-2.11718	
93	0.775	100.949	81.7423	15.475	66.4052	78.729	10.4247	42.8292	70.5129	-7.09635	20.5055	61.3817	-12.9865	84.9663	40.0981	-57.4284	62.6286	21.2895	-69.5081	38.3765	0.470419	-54.9155	96.6134	19.0203	-59.2513	66.7673	-5.56932	-66.067	39.0697	-15.3823	-46.7781	104.561	-2.28626	-48.6577	80.0875	-19.776	-53.0616	54.6666	-24.8639	-37.1805	116.24	-16.2372	-24.8281	93.3098	-29.9437	-29.7212	63.802	-25.062	-18.4283	144.04	26.7066	-10.9877	157.889	45.5275	20.9047	133.712	65.8212	-5.84393	
94	0.783333	102.647	81.0873	18.0709	68.2796	81.9101	9.74919	42.8461	76.2431	-9.15936	21.8872	63.5754	-18.8235	84.1452	36.6182	-57.5383	59.2154	18.9056	-69.4343	32.7964	8.85967	-60.6561	92.3177	15.2431	-59.558	60.8637	-2.34038	-66.6541	30.9477	-11.1865	-48.4576	99.1282	-5.79959	-47.5804	72.1594	-21.0826	-51.3297	45.7012	-25.5606	-35.9881	108.135	-14.8908	-21.8717	82.7902	-26.8056	-28.6296	51.7184	-20.5711	-17.8189	138.109	21.8141	-7.60427	153.276	34.9404	18.3611	134.304	64.4128	-2.01712	
95	0.791667	101.367	82.6694	14.9134	68.2952	85.7402	6.30487	43.0447	79.0983	-13.4013	25.7153	68.5492	-20.9617	83.5773	40.7055	-58.006	57.9403	21.9243	-70.5239	30.1425	13.7468	-62.9746	91.0681	12.3623	-56.7284	58.3796	0.587676	-68.749	27.2796	-7.59868	-52.775	94.2751	-4.19955	-45.7388	64.9164	-17.7138	-52.6567	36.9402	-19.9743	-38.0302	99.3365	-17.5737	-22.1499	71.8596	-27.0667	-26.6663	46.2955	-17.8343	-18.6446	134.76	20.646	-6.97526	150.611	30.793	20.4384	132.572	55.486	-4.00599	
96	0.8	102.54	83.061	13.3345	70.4506	82.1855	1.82865	48.3367	81.9049	-12.6339	25.7897	74.5336	-24.3428	82.6762	41.6428	-60.1476	58.8616	28.5741	-73.3807	30.1369	15.1224	-64.8554	83.8565	14.6204	-61.8044	54.9086	1.18908	-69.5611	23.653	0.0123444	-58.5042	89.9351	-6.6105	-44.0261	55.3811	-16.2467	-53.1628	28.1329	-10.8723	-41.1266	94.14	-21.9672	-18.9039	64.706	-22.1759	-27.8859	39.1529	-15.4259	-22.3995	130.198	18.6029	-4.37994	145.939	28.7849	20.5817	133.139	55.3295	-0.152745	
97	0.808333	104.473	82.2905	12.7229	75.2348	84.521	0.792453	52.0511	89.8771	-15.1243	30.2404	80.4847	-28.1417	85.2703	38.5221	-59.8773	58.63	28.0181	-73.4942	28.1367	22.0453	-67.1546	83.076	14.9541	-63.1868	53.6458	8.09538	-72.8873	18.4745	7.14361	-59.9293	82.9709	-7.04087	-47.2833	54.5171	-15.0169	-54.5526	25.39	-9.48164	-42.5499	85.9665	-18.7133	-20.2794	56.1232	-23.9927	-26.1839	29.9507	-9.39068	-22.1329	125.516	11.6366	-5.01918	143.514	22.2122	21.374	132.05	51.3756	-2.01939	
98	0.816667	110.139	80.89	13.9976	80.1278	88.9212	0.95629	59.4634	89.436	-18.3539	34.954	88.3883	-33.6949	87.6571	36.4103	-60.6327	60.6265	26.9891	-74.7234	27.7738	30.5145	-72.4144	83.8945	11.0555	-62.2384	50.5319	8.13318	-74.7187	20.6306	15.0336	-65.3687	82.31	-7.15509	-44.7996	51.9347	-10.9645	-57.0297	24.1736	-2.02038	-47.6446	80.0993	-21.7285	-17.0434	51.5081	-16.3591	-30.9993	28.3936	-1.47157	-27.2955	122.558	10.7324	-2.35146	139.853	16.0034	27.1235	131.887	46.831	-3.34021	
99	0.825	115.05	77.2119	10.6225	85.7918	86.5081	-2.81996	65.5062	91.8895	-24.9236	42.4444	93.0097	-39.5312	91.1149	37.8143	-62.9125	65.919	31.3091	-78.4743	30.9878	35.4117	-73.8254	85.5815	12.6534	-64.477	55.2995	10.5274	-76.6222	22.0026	22.8069	-68.781	79.3418	-7.08261	-47.4978	47.9865	-9.07843	-59.3375	21.9997	3.12829	-50.2738	72.7416	-20.7561	-20.7182	46.425	-16.7391	-30.9423	25.1563	5.13142	-33.8924	117.436	4.06975	-2.85894	135.644	8.13662	28.4482	132.936	40.3579	-0.242514	
100	0.833333	119.304	72.062	11.2772	93.072	88.5203	-5.88198	74.2872	94.2781	-24.9172	53.3431	90.931	-42.6732	94.9628	32.4966	-62.7268	67.8007	31.0187	-81.967	39.1416	37.2608	-77.4329	87.1694	9.27146	-62.4905	56.0168	10.6311	-78.7745	26.3807	25.8656	-72.1603	80.6703	-8.35979	-46.7835	50.1393	-5.19572	-64.3274	22.0323	12.2504	-54.7976	71.7641	-17.0725	-20.4573	48.8638	-11.6583	-35.3662	25.0086	8.94845	-35.8795	116.677	3.57876	-0.809432	131.13	3.53661	29.6025	135.897	33.371	0.616435	
101	0.841667	124.781	70.0751	7.77086	99.7951	83.1942	-9.63479	83.4939	93.413	-32.8174	64.7857	97.1935	-45.1276	101.708	32.0169	-66.6513	76.8291	30.6615	-83.7568	44.0545	41.9943	-80.4422	90.354	6.45804	-64.4599	64.299	11.6954	-81.5124	30.3394	31.4353	-76.6107	82.3204	-6.76144	-49.5569	52.9881	-3.28489	-65.9076	27.7834	16.1619	-60.8169	71.3018	-14.3942	-20.5046	46.4915	-8.00321	-36.1926	27.5659	14.9021	-40.4495	115.639	-0.912392	4.10703	129.269	3.75563	32.8667	136.689	26.8673	2.90719	
102	0.85	129.83	63.9402	11.4508	109.58	84.1654	-8.75441	93.8839	93.0784	-33.7913	75.8773	95.1591	-45.7292	109.377	28.0946	-62.6736	84.8234	27.5421	-83.326	54.5292	42.7246	-83.402	97.165	4.26358	-62.0101	68.3006	10.2161	-83.5313	35.975	31.8838	-78.3942	84.3764	-9.24004	-46.0897	58.3707	-2.98321	-67.4492	33.6875	17.3512	-64.9839	69.9007	-15.2865	-23.5559	48.399	-7.60187	-37.4257	31.67	16.4066	-41.9356	116.53	-3.99831	0.190665	129.46	-1.55303	36.2913	139.327	22.3453	6.23784	
